<svg xmlns="http://www.w3.org/2000/svg" viewBox="0 0 200 260" width="200" height="260"
     role="img" aria-labelledby="t-fuzhou-moshenzai" class="ys-paper"
     data-style="fuzhou" data-item="moshenzai" data-body="haunt" data-faction="yinqi" data-count="4">
<title id="t-fuzhou-moshenzai">魔神仔紅帽・作祟・版畫紙紮剪影樣張</title>
<path d="M22 11 L64 14 L110 10 L152 14 L178 11 L176 62 L179 130 L175 198 L178 250 L134 246 L88 250 L46 246 L23 249 L26 190 L21 128 L25 66 Z" fill="#e7dcbd" opacity=".94"/>
<path d="M22 11 L64 14 L110 10 L152 14 L178 11 L176 62 L179 130 L175 198 L178 250 L134 246 L88 250 L46 246 L23 249 L26 190 L21 128 L25 66 Z" fill="none" stroke="#b3a077" stroke-width="1.4"/>
<g fill="#b93b2e" opacity=".65"><path d="M30 34 h16 v3.4 h-16 Z"/><path d="M36 39 h4 v18 h-4 Z"/><path d="M31 60 l7 -6 7 6 -7 6 Z"/><path d="M30 68 h16 v3.4 h-16 Z"/><path d="M36 73 h4 v18 h-4 Z"/><path d="M31 94 h14 v3.4 h-14 Z"/><path d="M30 102 h16 v3.4 h-16 Z"/><path d="M36 107 h4 v18 h-4 Z"/><path d="M31 128 l7 -6 7 6 -7 6 Z"/><path d="M30 136 h16 v3.4 h-16 Z"/><path d="M36 141 h4 v18 h-4 Z"/><path d="M31 162 h14 v3.4 h-14 Z"/><path d="M30 170 h16 v3.4 h-16 Z"/><path d="M36 175 h4 v18 h-4 Z"/><path d="M31 196 l7 -6 7 6 -7 6 Z"/><path d="M30 204 h16 v3.4 h-16 Z"/><path d="M36 209 h4 v18 h-4 Z"/><path d="M31 230 h14 v3.4 h-14 Z"/></g>
<g fill="#141018" stroke="#141018" stroke-width="3" stroke-linejoin="round" stroke-linecap="round"><path d="M50 246 C62 231 74 252 88 240 C94 234 100 237 100 237 C100 237 106 234 112 240 C126 252 138 231 150 246 L150 253 L50 253 Z"/><path d="M84 170 L79 212 L70 238 L68 247 L94 247 L92 238 L92 212 L97 172 Z"/><path d="M116 170 L121 212 L130 238 L132 247 L106 247 L108 238 L108 212 L103 172 Z"/><path d="M80 112 C69 128 67 154 74 178 L126 178 C133 154 131 128 120 112 Z"/><path d="M77 90 C77 118 123 118 123 90 Z"/><path d="M79 120 C61 142 55 178 57 206 L70 208 C69 179 74 148 89 129 Z"/><path d="M121 120 C139 142 145 178 143 206 L130 208 C131 179 126 148 111 129 Z"/><path d="M55 202 L73 205 L75 222 L70 214 L67 226 L63 214 L59 224 L57 210 Z"/><path d="M145 202 L127 205 L125 222 L130 214 L133 226 L137 214 L141 224 L143 210 Z"/></g>
<g fill="#b93b2e" stroke="#141018" stroke-width="3" stroke-linejoin="round"><path d="M100 18 C113 38 130 74 136 94 L64 94 C70 74 87 38 100 18 Z"/><path d="M56 94 C56 85 144 85 144 94 C144 103 56 103 56 94 Z"/></g>
<g fill="none" stroke="#e7dcbd" stroke-width="1.5" stroke-linejoin="round" opacity=".8"><path d="M84 170 L79 212 L70 238 L68 247 L94 247 L92 238 L92 212 L97 172 Z"/><path d="M116 170 L121 212 L130 238 L132 247 L106 247 L108 238 L108 212 L103 172 Z"/><path d="M80 112 C69 128 67 154 74 178 L126 178 C133 154 131 128 120 112 Z"/><path d="M77 90 C77 118 123 118 123 90 Z"/><path d="M100 18 C113 38 130 74 136 94 L64 94 C70 74 87 38 100 18 Z"/><path d="M56 94 C56 85 144 85 144 94 C144 103 56 103 56 94 Z"/><path d="M79 120 C61 142 55 178 57 206 L70 208 C69 179 74 148 89 129 Z"/><path d="M121 120 C139 142 145 178 143 206 L130 208 C131 179 126 148 111 129 Z"/><path d="M55 202 L73 205 L75 222 L70 214 L67 226 L63 214 L59 224 L57 210 Z"/><path d="M145 202 L127 205 L125 222 L130 214 L133 226 L137 214 L141 224 L143 210 Z"/></g>
<g fill="#e7dcbd" opacity=".92"><path d="M62 118 l58 -12 1.6 5 -58 12 Z M60 150 l72 -14 1.6 5 -72 14 Z M66 186 l52 -11 1.6 5 -52 11 Z M74 218 l40 -9 1.6 5 -40 9 Z M70 84 l44 -9 1.6 4.4 -44 9 Z"/></g>
<g fill="#e7dcbd" opacity=".95"><path d="M84 102 C92 113 108 113 116 102 C108 106.5 92 106.5 84 102 Z"/><path d="M89 96 a3.6 3.6 0 1 0 .1 0 Z"/><path d="M111 96 a3.6 3.6 0 1 0 .1 0 Z"/><path d="M96 40 h8 v16 h-8 Z"/><path d="M92 64 h16 v6 h-16 Z"/><path d="M88 78 h24 v6 h-24 Z"/><path d="M82 132 h36 v4 h-36 Z"/><path d="M80 146 h40 v4 h-40 Z"/><path d="M82 160 h36 v4 h-36 Z"/></g>
<g><path d="M142 208 h30 v32 h-30 Z" fill="#b93b2e"/><g fill="#e7dcbd"><path d="M147 214 h20 v3 h-20 Z"/><path d="M147 222 h20 v3 h-20 Z"/><path d="M147 231 h20 v3 h-20 Z"/><path d="M155 214 h3.5 v20 h-3.5 Z"/><path d="M164 214 h3.5 v20 h-3.5 Z"/></g></g>
</svg>
